<svg width="22" height="30" viewBox="0 0 22 30" fill="none" xmlns="http://www.w3.org/2000/svg">
<ellipse cx="10.9735" cy="28.7889" rx="4.37491" ry="0.710983" fill="#558EBD" fill-opacity="0.18"/>
<circle cx="10.8098" cy="10.1806" r="2.28687" fill="#3F75A1"/>
<path d="M12.7458 12.7658C14.0403 13.1054 14.9213 13.7746 14.9216 14.5451C14.9216 15.6592 13.0809 16.5626 10.8103 16.5627C8.53947 16.5627 6.698 15.6593 6.698 14.5451C6.69832 13.7748 7.57888 13.1055 8.8728 12.7658C9.40908 13.3065 10.0809 13.6281 10.8103 13.6281C11.5393 13.628 12.2097 13.306 12.7458 12.7658Z" fill="url(#paint0_linear_354_3004)"/>
<path d="M7.16952 20.4506C5.04926 19.6001 3.29147 18.0376 2.19832 16.0316C1.10516 14.0257 0.744912 11.7016 1.1795 9.45883C1.61408 7.21607 2.81636 5.19475 4.57966 3.7423C6.34297 2.28986 8.55715 1.49702 10.8416 1.50007C13.1261 1.50312 15.3382 2.30187 17.0976 3.75901C18.857 5.21616 20.0539 7.24069 20.4825 9.4846C20.9111 11.7285 20.5446 14.0516 19.4461 16.0547C18.3476 18.0577 16.5856 19.6155 14.4631 20.4603" stroke="url(#paint1_linear_354_3004)" stroke-width="1.46968" stroke-linecap="round"/>
<path fill-rule="evenodd" clip-rule="evenodd" d="M10.8445 5.37787C12.2064 5.3797 13.5252 5.85584 14.5741 6.72454C15.623 7.59323 16.3365 8.80023 16.592 10.1379C16.8468 11.4716 16.6303 12.8522 15.98 14.0438C15.9782 14.0474 15.9761 14.0515 15.9738 14.0559C15.9671 14.0686 15.9583 14.0851 15.9471 14.105C15.9247 14.1449 15.893 14.1991 15.8507 14.2667C15.766 14.402 15.6384 14.5914 15.4559 14.8294C15.0908 15.3055 14.5063 15.9758 13.6065 16.7984C12.7702 17.5631 12.2148 18.0744 11.864 18.3988L13.2145 23.0821C13.25 23.2053 13.2239 23.3381 13.1445 23.4388L11.3473 25.7147C11.1085 26.0172 10.6498 26.0172 10.4109 25.7147L8.61381 23.4388C8.53434 23.3381 8.50828 23.2053 8.5438 23.0821L9.8694 18.4846C8.98683 17.7248 8.125 16.896 7.41717 16.1556C6.99536 15.7144 6.62299 15.2993 6.33054 14.9442C6.05868 14.6142 5.81748 14.2903 5.68687 14.032C5.039 12.8382 4.82586 11.4563 5.08428 10.1226C5.34337 8.78557 6.06011 7.58043 7.11131 6.71454C8.16252 5.84867 9.48257 5.37606 10.8445 5.37787ZM10.7741 6.95952C8.41283 6.95954 6.49863 8.87372 6.49862 11.235C6.49862 13.5962 8.41282 15.5104 10.7741 15.5104C13.1353 15.5104 15.0495 13.5962 15.0495 11.235C15.0495 8.87372 13.1353 6.95953 10.7741 6.95952Z" fill="url(#paint2_linear_354_3004)"/>
<defs>
<linearGradient id="paint0_linear_354_3004" x1="10.5455" y1="10.5481" x2="10.5952" y2="14.6246" gradientUnits="userSpaceOnUse">
<stop stop-color="#40729B"/>
<stop offset="1" stop-color="#4581B2"/>
</linearGradient>
<linearGradient id="paint1_linear_354_3004" x1="10.8285" y1="1.50006" x2="10.8285" y2="20.4603" gradientUnits="userSpaceOnUse">
<stop stop-color="#3C729E"/>
<stop offset="0.42402" stop-color="#84AECF"/>
<stop offset="1" stop-color="#3F75A1"/>
</linearGradient>
<linearGradient id="paint2_linear_354_3004" x1="10.8367" y1="5.37787" x2="10.8436" y2="14.4756" gradientUnits="userSpaceOnUse">
<stop stop-color="#4581B2"/>
<stop offset="0.537163" stop-color="#84AECF"/>
<stop offset="1" stop-color="#4581B2"/>
</linearGradient>
</defs>
</svg>
